<svg width="96" height="96" xmlns="http://www.w3.org/2000/svg" xmlns:xlink="http://www.w3.org/1999/xlink" xml:space="preserve" overflow="hidden"><g transform="translate(-150 -264)"><path d="M241.612 303.7 198.006 288.1 154.4 303.7 163 306.719 163 324.1C163 324.652 163.448 325.1 164 325.1 164.552 325.1 165 324.652 165 324.1L165 307.42 172.038 309.89 172.038 324.29C172.038 330.15 183.93 335.1 198.006 335.1 212.082 335.1 223.975 330.15 223.975 324.292L223.975 309.89ZM198.006 290.225 235.6 303.674C235.615 303.679 235.615 303.687 235.6 303.692L198.006 316.882 160.416 303.692C160.401 303.687 160.401 303.679 160.416 303.674ZM221.975 324.292C221.975 328.365 211.505 333.1 198.006 333.1 184.507 333.1 174.038 328.365 174.038 324.292L174.038 310.592 198.006 319 221.975 310.59Z"/></g></svg>