<svg width="96" height="96" xmlns="http://www.w3.org/2000/svg" xmlns:xlink="http://www.w3.org/1999/xlink" xml:space="preserve" overflow="hidden"><g transform="translate(-333 -256)"><path d="M396 287.28 378 270.14 378 270.14 342 304.39 345.89 307.71 378 277.21 378 277.21 394.71 293.09C395.014 291.128 395.445 289.187 396 287.28Z"/><path d="M412 331 412 310.81C418 309.73 422.5 303.91 422.5 295.62 422.5 286.42 413 267.4 410 267.4 407 267.4 397.5 286.4 397.5 295.62 397.5 303.91 402.05 309.73 408 310.81L408 331 404 331 404 312.66C398.7 310.17 395 304.4 394.56 297.2L378 282 352 305.87 352 331 346 331 346 329.51 347.69 329.51C348.389 329.504 348.987 329.006 349.12 328.32L349.12 328.32C349.406 327.055 350.028 325.891 350.92 324.95 351.045 324.833 351.051 324.637 350.933 324.512 350.851 324.424 350.724 324.392 350.61 324.43 348.863 324.838 347.265 325.728 346 327L346 324.2C350.46 323.46 348 317.65 348 317.65 347.916 317.501 347.727 317.448 347.578 317.532 347.529 317.56 347.488 317.601 347.46 317.65L346.39 319.47 345.32 317.65C345.261 317.552 345.155 317.491 345.04 317.49 344.929 317.494 344.827 317.555 344.77 317.65L343.7 319.47 342.59 317.65C342.5 317.498 342.303 317.448 342.151 317.539 342.106 317.566 342.067 317.604 342.04 317.65 342.04 317.65 339.55 323.45 344.04 324.2L344.04 326.94C342.771 325.694 341.183 324.822 339.45 324.42 339.287 324.366 339.112 324.454 339.058 324.617 339.02 324.731 339.052 324.857 339.14 324.94 340.035 325.879 340.657 327.044 340.94 328.31L340.94 328.31C341.073 328.996 341.671 329.494 342.37 329.5L344 329.5 344 331 336 331 336 337 425 337 425 331ZM368 320 358 320 358 310 368 310ZM383 331 373 331 373 310 383 310ZM398 320 388 320 388 310 398 310Z"/></g></svg>