<svg width="96" height="96" xmlns="http://www.w3.org/2000/svg" xmlns:xlink="http://www.w3.org/1999/xlink" xml:space="preserve" overflow="hidden"><g transform="translate(-429 -258)"><path d="M461 322 451 322 451 312 461 312ZM453 320 459 320 459 314 453 314Z"/><path d="M491 322 481 322 481 312 491 312ZM483 320 489 320 489 314 483 314Z"/><path d="M509 315.418 510.089 315.418 510.177 315.402C516.95 314.187 521.5 307.685 521.5 299.228 521.5 290.214 512.164 270 508 270 503.836 270 494.5 290.214 494.5 299.228 494.5 307.675 499.049 314.177 505.821 315.406L507 315.406 507 334 499 334 499 315.667C498.287 315.152 497.618 314.579 497 313.954L497 334 477 334 477 312 465 312 465 334 447 334 447 306.452 471.019 282.433 492.048 303.462C491.814 302.374 491.655 301.272 491.574 300.162L471.019 279.6 445 305.624 445 305.624 441.366 309.258 438.8 306.655 471.025 274.433 491.792 295.2C491.91 294.462 492.065 293.669 492.251 292.832L471.025 271.6 435.986 306.644 441.355 312.1 445 308.452 445 334 433 334 433 336 521 336 521 334 509 334ZM506.092 313.418C500.351 312.33 496.5 306.639 496.5 299.228 496.5 290.321 505.639 272.538 507.963 271.997 510.363 272.539 519.5 290.324 519.5 299.228 519.5 306.648 515.65 312.339 509.909 313.422L509 313.422 509 306.832 516.363 299.468 514.949 298.054 509 304 509 287 507 287 507 298.565 501.9 293.465 500.49 294.883 507 301.393 507 313.422ZM475 334 467 334 467 314 475 314Z"/></g></svg>