<svg width="96" height="96" xmlns="http://www.w3.org/2000/svg" xmlns:xlink="http://www.w3.org/1999/xlink" xml:space="preserve" overflow="hidden"><g transform="translate(-580 -248)"><path d="M649 314 649 295.823 625.175 308.177 625.175 295.823 601.352 308.177 598.7 272 591.646 272 589 308.177 589 332 667 332 667 314ZM606.646 325.823 596.058 325.823 596.058 317.882 606.646 317.882ZM624.293 325.823 613.705 325.823 613.705 317.882 624.293 317.882ZM641.94 325.823 631.352 325.823 631.352 317.882 641.94 317.882Z"/><path d="M611.2 262.487C610.472 263.16 609.349 263.16 608.621 262.487 607.082 261.046 605.045 260.258 602.937 260.287L602.194 260.302C597.326 260.175 593.271 264.008 593.124 268.876L593.124 270 597.184 270 597.184 269.352C597.142 267.159 598.858 265.334 601.049 265.241L601.6 265.2C603.267 264.991 604.941 265.53 606.174 266.671L609.051 269.397C610.524 270.765 612.519 271.423 614.517 271.2 614.638 272.443 615.207 273.599 616.117 274.454 618.506 276.573 622.122 276.501 624.424 274.287 624.769 273.96 625.073 273.593 625.329 273.193 627.921 273.947 630.718 273.274 632.683 271.423 635.374 269.047 635.63 264.94 633.255 262.248 633.141 262.119 633.022 261.995 632.898 261.875 629.994 259.297 625.597 259.385 622.798 262.075 622.063 262.737 620.947 262.737 620.212 262.075 617.787 259.833 614.045 259.833 611.62 262.075Z"/></g></svg>