<svg width="96" height="96" xmlns="http://www.w3.org/2000/svg" xmlns:xlink="http://www.w3.org/1999/xlink" xml:space="preserve" overflow="hidden"><g transform="translate(-676 -248)"><path d="M692.842 274.007 695.358 308.34 695.58 311.366 698.274 309.966 719.174 299.124 719.174 311.484 722.1 309.969 743 299.127 743 316.018 761 316.018 761 330.018 687 330.018 687 308.267 689.506 274.007ZM687.647 272.007 685 308.194 685 332.023 763 332.023 763 314.023 745 314.023 745 295.836 721.177 308.194 721.177 295.836 697.353 308.194 694.7 272.007Z"/><path d="M716.181 276.992C714.44 276.997 712.758 276.363 711.455 275.209 710.598 274.41 709.986 273.383 709.691 272.249 707.716 272.235 705.818 271.481 704.372 270.135L701.487 267.4C700.406 266.502 699.012 266.07 697.612 266.2L697.124 266.238C695.464 266.299 694.158 267.677 694.185 269.338L694.185 270.006 692.185 270.006 692.185 269.358C692.123 266.637 694.25 264.366 696.969 264.249L697.527 264.208C699.464 264.045 701.384 264.67 702.854 265.942L705.74 268.677C706.999 269.844 708.703 270.404 710.408 270.213L711.416 270.1 711.516 271.109C711.611 272.11 712.068 273.043 712.8 273.732 714.804 275.478 717.808 275.41 719.73 273.574 720.018 273.301 720.272 272.995 720.486 272.661L720.886 272.031 721.603 272.24C723.858 272.892 726.289 272.307 728 270.7 730.291 268.69 730.519 265.204 728.509 262.913 728.509 262.913 728.508 262.912 728.508 262.912 728.412 262.803 728.312 262.698 728.208 262.597 725.688 260.403 721.912 260.49 719.495 262.797 718.382 263.823 716.671 263.832 715.546 262.819 713.5 260.936 710.353 260.932 708.302 262.81L707.902 263.202C706.789 264.238 705.068 264.247 703.944 263.223 702.573 261.977 700.785 261.286 698.932 261.288L698.216 261.303C693.886 261.182 690.271 264.58 690.124 268.909L690.124 270.003 688.124 270.003 688.124 268.882C688.332 263.491 692.794 259.246 698.188 259.306L698.916 259.291C701.279 259.289 703.558 260.17 705.305 261.761 705.649 262.077 706.178 262.077 706.522 261.761L706.922 261.369C709.736 258.774 714.069 258.765 716.894 261.349 717.248 261.663 717.782 261.659 718.132 261.34 721.316 258.324 726.275 258.235 729.565 261.135 729.739 261.301 729.876 261.445 730.008 261.594 732.745 264.702 732.45 269.438 729.349 272.183 727.311 274.084 724.481 274.885 721.749 274.336 721.554 274.579 721.342 274.809 721.116 275.024 719.788 276.294 718.019 276.999 716.181 276.992Z"/><path d="M700.647 319.9 700.647 323.843 694.059 323.843 694.059 319.9ZM692.059 317.9 692.059 325.843 702.647 325.843 702.647 317.9Z"/><path d="M718.3 319.9 718.3 323.843 711.707 323.843 711.707 319.9ZM709.712 317.9 709.712 325.843 720.3 325.843 720.3 317.9Z"/><path d="M735.943 319.9 735.943 323.843 729.354 323.843 729.354 319.9ZM727.354 317.9 727.354 325.843 737.943 325.843 737.943 317.9Z"/></g></svg>