<svg width="96" height="96" xmlns="http://www.w3.org/2000/svg" xmlns:xlink="http://www.w3.org/1999/xlink" xml:space="preserve" overflow="hidden"><g transform="translate(-38 -424)"><path d="M122.9 496.56C120.935 495.798 118.856 495.369 116.75 495.29 114.644 495.369 112.565 495.798 110.6 496.56 109.291 497.087 107.908 497.404 106.5 497.5L106.5 497.5C105.092 497.404 103.709 497.087 102.4 496.56 100.435 495.798 98.3563 495.369 96.25 495.29 94.1437 495.369 92.0654 495.798 90.1 496.56 88.7911 497.087 87.4075 497.404 86 497.5 84.5925 497.404 83.2089 497.087 81.9 496.56 79.9346 495.798 77.8563 495.369 75.75 495.29 73.6437 495.369 71.5654 495.798 69.6 496.56 68.2911 497.087 66.9075 497.404 65.5 497.5 64.0925 497.404 62.7089 497.087 61.4 496.56 59.4346 495.798 57.3563 495.369 55.25 495.29 53.1437 495.369 51.0654 495.798 49.1 496.56 47.7911 497.087 46.4075 497.404 45 497.5L45 503.5C47.1063 503.421 49.1846 502.992 51.15 502.23 52.4556 501.683 53.8393 501.346 55.25 501.23 56.6607 501.346 58.0444 501.683 59.35 502.23 61.3154 502.992 63.3937 503.421 65.5 503.5 67.6063 503.421 69.6846 502.992 71.65 502.23 72.9556 501.683 74.3393 501.346 75.75 501.23 77.1575 501.326 78.5411 501.643 79.85 502.17 81.8105 502.956 83.8897 503.406 86 503.5 88.1063 503.421 90.1846 502.992 92.15 502.23 93.4556 501.683 94.8393 501.346 96.25 501.23 97.6607 501.346 99.0444 501.683 100.35 502.23 102.315 502.992 104.394 503.421 106.5 503.5 108.606 503.421 110.685 502.992 112.65 502.23 113.956 501.683 115.339 501.346 116.75 501.23 118.158 501.326 119.541 501.643 120.85 502.17 122.811 502.956 124.89 503.406 127 503.5L127 497.5C125.592 497.404 124.209 497.087 122.9 496.56Z"/><path d="M122.9 508.56C120.935 507.798 118.856 507.369 116.75 507.29 114.644 507.369 112.565 507.798 110.6 508.56 109.291 509.087 107.908 509.404 106.5 509.5L106.5 509.5C105.092 509.404 103.709 509.087 102.4 508.56 100.435 507.798 98.3563 507.369 96.25 507.29 94.1437 507.369 92.0654 507.798 90.1 508.56 88.7911 509.087 87.4075 509.404 86 509.5 84.5925 509.404 83.2089 509.087 81.9 508.56 79.9346 507.798 77.8563 507.369 75.75 507.29 73.6437 507.369 71.5654 507.798 69.6 508.56 68.2911 509.087 66.9075 509.404 65.5 509.5 64.0925 509.404 62.7089 509.087 61.4 508.56 59.4346 507.798 57.3563 507.369 55.25 507.29 53.1437 507.369 51.0654 507.798 49.1 508.56 47.7911 509.087 46.4075 509.404 45 509.5L45 515.5C47.1063 515.421 49.1846 514.992 51.15 514.23 52.4556 513.683 53.8393 513.346 55.25 513.23 56.6607 513.346 58.0444 513.683 59.35 514.23 61.3154 514.992 63.3937 515.421 65.5 515.5 67.6063 515.421 69.6846 514.992 71.65 514.23 72.9556 513.683 74.3393 513.346 75.75 513.23 77.1575 513.326 78.5411 513.643 79.85 514.17 81.8105 514.956 83.8897 515.406 86 515.5 88.1063 515.421 90.1846 514.992 92.15 514.23 93.4556 513.683 94.8393 513.346 96.25 513.23 97.6607 513.346 99.0444 513.683 100.35 514.23 102.315 514.992 104.394 515.421 106.5 515.5 108.606 515.421 110.685 514.992 112.65 514.23 113.956 513.683 115.339 513.346 116.75 513.23 118.158 513.326 119.541 513.643 120.85 514.17 122.811 514.956 124.89 515.406 127 515.5L127 509.5C125.592 509.404 124.209 509.087 122.9 508.56Z"/><path d="M127 463.25 127 459.25C117.09 459.25 108.06 452.03 108 444.08L108 444 104 444 104 444.08C103.94 451.76 94 459.21 86 459.21 78 459.21 68.06 451.76 68 444.08L68 444 64 444 64 444.08C63.94 452.08 54.91 459.25 45 459.25L45 463.25C46.0029 463.247 47.0047 463.184 48 463.06L48 471 45 471 45 479 63 479 63 490.88C63.897 491.141 64.8186 491.308 65.75 491.38 66.8562 491.3 67.948 491.081 69 490.73L69 479 103 479 103 491C103.896 491.266 104.818 491.433 105.75 491.5 106.856 491.42 107.948 491.201 109 490.85L109 479 127 479 127 471 124 471 124 463.06C124.995 463.184 125.997 463.247 127 463.25ZM56 471 52 471 52 462.25C53.3734 461.856 54.7114 461.348 56 460.73ZM63 471 60 471 60 458.32C61.075 457.522 62.0787 456.632 63 455.66ZM72 471 69 471 69 455.66C69.9218 456.628 70.9255 457.515 72 458.31ZM96 460.72 96 471 92 471 92 462.24C93.3734 461.846 94.7114 461.337 96 460.72ZM88 463.05 88 471.05 84 471.05 84 463.05C84.66 463.13 85.33 463.19 86 463.22 86.67 463.25 87.34 463.13 88 463.05ZM76 460.72C77.2888 461.334 78.6268 461.839 80 462.23L80 471 76 471ZM100 471 100 458.31C101.075 457.515 102.078 456.628 103 455.66L103 471ZM109 455.66C109.921 456.632 110.925 457.522 112 458.32L112 471 109 471ZM120 471 116 471 116 460.73C117.289 461.348 118.627 461.856 120 462.25Z"/></g></svg>