<svg width="96" height="96" xmlns="http://www.w3.org/2000/svg" xmlns:xlink="http://www.w3.org/1999/xlink" xml:space="preserve" overflow="hidden"><g transform="translate(-134 -424)"><path d="M224 513.812C222.079 513.856 220.171 513.493 218.4 512.746 215.257 511.501 211.758 511.501 208.615 512.746 205.014 514.167 201.008 514.167 197.407 512.746 194.265 511.501 190.765 511.501 187.623 512.746 185.851 513.493 183.94 513.857 182.017 513.812 180.094 513.857 178.183 513.493 176.41 512.746 174.862 512.088 173.191 511.77 171.51 511.812 169.831 511.771 168.163 512.089 166.617 512.746 164.846 513.493 162.938 513.856 161.017 513.812 159.09 513.858 157.176 513.495 155.4 512.746 153.852 512.089 152.181 511.77 150.5 511.812 148.819 511.77 147.148 512.089 145.6 512.746 143.829 513.492 141.921 513.855 140 513.812L140 511.812C141.681 511.854 143.352 511.535 144.9 510.877 146.673 510.13 148.585 509.767 150.509 509.812 152.433 509.767 154.344 510.13 156.118 510.877 157.666 511.535 159.337 511.854 161.018 511.812 162.697 511.853 164.365 511.534 165.911 510.877 167.682 510.131 169.59 509.768 171.511 509.812 173.434 509.767 175.345 510.13 177.118 510.877 178.666 511.535 180.337 511.854 182.018 511.812 183.697 511.853 185.366 511.534 186.912 510.877 188.684 510.13 190.594 509.767 192.517 509.812 194.438 509.767 196.346 510.13 198.117 510.877 201.259 512.124 204.759 512.124 207.901 510.877 211.502 509.457 215.509 509.457 219.11 510.877 220.655 511.534 222.322 511.853 224 511.812Z"/><path d="M224 506.311C222.079 506.355 220.171 505.992 218.4 505.246 215.258 503.999 211.758 503.999 208.615 505.246 205.014 506.666 201.008 506.666 197.407 505.246 194.265 503.999 190.765 503.999 187.623 505.246 185.85 505.993 183.94 506.356 182.017 506.311 180.094 506.356 178.183 505.993 176.41 505.246 174.862 504.587 173.191 504.268 171.51 504.311 169.831 504.269 168.162 504.588 166.617 505.246 164.846 505.992 162.938 506.355 161.017 506.311 159.09 506.357 157.176 505.994 155.4 505.246 153.852 504.588 152.181 504.269 150.5 504.311 148.819 504.269 147.148 504.588 145.6 505.246 143.829 505.992 141.921 506.355 140 506.311L140 504.311C141.681 504.353 143.352 504.034 144.9 503.376 146.674 502.629 148.585 502.267 150.509 502.311 152.433 502.267 154.344 502.63 156.118 503.376 157.666 504.034 159.337 504.353 161.018 504.311 162.697 504.353 164.366 504.034 165.911 503.376 167.682 502.63 169.59 502.267 171.511 502.311 173.434 502.267 175.345 502.629 177.118 503.376 178.666 504.034 180.337 504.353 182.018 504.311 183.697 504.353 185.366 504.034 186.912 503.376 188.684 502.63 190.594 502.267 192.517 502.311 194.438 502.267 196.346 502.63 198.117 503.376 201.259 504.623 204.759 504.623 207.901 503.376 211.502 501.956 215.509 501.956 219.11 503.376 220.655 504.033 222.322 504.352 224 504.311Z"/><path d="M224 498.811C222.079 498.855 220.171 498.492 218.4 497.746 215.258 496.499 211.758 496.499 208.615 497.746 205.014 499.166 201.008 499.166 197.407 497.746 194.265 496.499 190.765 496.499 187.623 497.746 185.85 498.493 183.94 498.856 182.017 498.811 180.094 498.856 178.183 498.493 176.41 497.746 174.862 497.087 173.191 496.768 171.51 496.811 169.831 496.769 168.162 497.088 166.617 497.746 164.846 498.492 162.938 498.855 161.017 498.811 159.09 498.857 157.176 498.494 155.4 497.746 153.852 497.088 152.181 496.769 150.5 496.811 148.819 496.769 147.148 497.088 145.6 497.746 143.829 498.492 141.921 498.855 140 498.811L140 496.811C141.681 496.853 143.352 496.534 144.9 495.876 146.674 495.129 148.585 494.767 150.509 494.811 152.433 494.767 154.344 495.13 156.118 495.876 157.666 496.534 159.337 496.853 161.018 496.811 162.697 496.853 164.366 496.534 165.911 495.876 167.682 495.13 169.59 494.767 171.511 494.811 173.434 494.767 175.345 495.129 177.118 495.876 178.666 496.534 180.337 496.853 182.018 496.811 183.697 496.853 185.366 496.534 186.912 495.876 188.684 495.13 190.594 494.767 192.517 494.811 194.438 494.767 196.346 495.13 198.117 495.876 201.259 497.123 204.759 497.123 207.901 495.876 211.502 494.456 215.509 494.456 219.11 495.876 220.655 496.533 222.322 496.852 224 496.811Z"/><path d="M222 476 205 476 205 474 222 474 222 472 219 472 219 461.773C219.993 461.92 220.996 461.996 222 462L222 460C212.675 459.984 204.738 453.207 203.261 444L200.739 444C199.098 454.349 189.379 461.409 179.029 459.768 170.913 458.482 164.548 452.116 163.261 444L160.739 444C159.262 453.207 151.325 459.984 142 460L142 462C143.004 461.996 144.007 461.92 145 461.773L145 472 142 472 142 474 159 474 159 476 142 476 142 478 159 478 159 493.3C159.066 493.327 159.135 493.345 159.2 493.373 159.783 493.59 160.386 493.75 161 493.853L161 449.893C161.383 449.089 161.714 448.26 161.991 447.413 161.991 447.398 162.004 447.398 162.009 447.413 162.286 448.26 162.617 449.089 163 449.893L163 493.757C163.417 493.656 163.826 493.529 164.227 493.377 164.48 493.271 164.743 493.19 165 493.095L165 478 199 478 199 493.3C199.067 493.327 199.136 493.346 199.2 493.374 199.784 493.591 200.386 493.751 201 493.854L201 449.893C201.383 449.089 201.714 448.26 201.991 447.413 201.991 447.398 202.004 447.398 202.009 447.413 202.286 448.26 202.617 449.089 203 449.893L203 493.758C203.417 493.657 203.828 493.53 204.229 493.377 204.481 493.271 204.743 493.19 205 493.096L205 478 222 478ZM211 458.873C212.856 460.024 214.88 460.876 217 461.4L217 472 211 472ZM205 453.273C206.137 454.843 207.482 456.251 209 457.457L209 472 205 472ZM153 472 147 472 147 461.4C149.12 460.878 151.144 460.027 153 458.878ZM159 472 155 472 155 457.458C156.518 456.252 157.863 454.844 159 453.274ZM187 461.4C189.12 460.878 191.144 460.027 193 458.878L193 472 187 472ZM179 461.778C180.988 462.081 183.012 462.081 185 461.778L185 472 179 472ZM171 458.878C172.856 460.027 174.88 460.878 177 461.4L177 472 171 472ZM165 453.278C166.137 454.848 167.482 456.256 169 457.462L169 472 165 472ZM199 476 165 476 165 474 199 474ZM199 472 195 472 195 457.458C196.518 456.252 197.863 454.844 199 453.274Z"/></g></svg>