<svg width="96" height="96" xmlns="http://www.w3.org/2000/svg" xmlns:xlink="http://www.w3.org/1999/xlink" xml:space="preserve" overflow="hidden"><g transform="translate(-676 -424)"><path d="M708.506 457.507 710.506 457.507 710.506 455.765C720.087 458.601 724.606 465.424 724.256 476.493L721.506 476.493 721.506 484 729.013 484 729.013 476.493 726.267 476.493C726.562 466.306 722.901 459.283 715.35 455.514 715.318 455.498 715.32 455.49 715.35 455.496L731.55 458.474C731.78 459.928 733.034 460.999 734.506 461 734.528 461 734.548 460.994 734.569 460.994L734.506 474.5C734.507 474.714 734.644 474.903 734.846 474.971 734.898 474.988 734.952 474.997 735.007 474.997 735.163 474.999 735.311 474.927 735.407 474.804L740.018 469.012 747.431 468.871C747.707 468.871 747.931 468.647 747.931 468.371 747.931 468.214 747.857 468.065 747.731 467.971L736.905 459.785C737.453 459.062 737.64 458.128 737.413 457.25 737.003 455.65 735.374 454.685 733.774 455.094 732.99 455.295 732.321 455.805 731.919 456.507L710.506 452.572 710.506 450 703 450 703 457.507 708.506 457.507ZM727.013 482 723.506 482 723.506 478.493 727.013 478.493ZM739.975 467.015 739.034 467.033 738.448 467.769 736.548 470.16C736.538 470.173 736.53 470.17 736.53 470.154L736.567 462.054C736.567 462.043 736.575 462.039 736.584 462.046L743.046 466.937C743.058 466.947 743.056 466.955 743.04 466.955ZM705 452 708.506 452 708.506 455.507 705 455.507Z"/><path d="M760 438.981 688 438.981C685.794 438.988 684.007 440.775 684 442.981L684 491C684.007 493.206 685.794 494.993 688 495L717 495 717 505 706 505 706 507 742 507 742 505 731 505 731 495 760 495C762.206 494.993 763.993 493.206 764 491L764 442.982C763.994 440.775 762.207 438.988 760 438.981ZM729 505 719 505 719 495 729 495ZM762 491C762 492.105 761.105 493 760 493L688 493C686.895 493 686 492.105 686 491L686 442.982C686 441.877 686.895 440.982 688 440.982L760 440.982C761.105 440.982 762 441.877 762 442.982Z"/><path d="M691 443.983 689 443.983 689 490 759 490 759 443.983 691 443.983ZM757 488 691 488 691 445.983 757 445.983Z"/></g></svg>