<svg width="96" height="96" xmlns="http://www.w3.org/2000/svg" xmlns:xlink="http://www.w3.org/1999/xlink" xml:space="preserve" overflow="hidden"><g transform="translate(-566 -424)"><path d="M598.532 457.506 600.532 457.506 600.532 456.287C609.761 459.087 614.114 465.741 613.777 476.494L611.532 476.494 611.532 484 619.039 484 619.039 476.494 616.774 476.494C617.06 466.694 613.752 459.76 606.902 455.776L621.58 458.476C621.81 459.928 623.062 460.998 624.532 461 624.554 461 624.574 460.994 624.595 460.994L624.532 474.5C624.532 474.776 624.756 475 625.032 475 625.189 475 625.338 474.926 625.432 474.8L630.042 469.008 637.456 468.867C637.732 468.867 637.956 468.643 637.956 468.367 637.956 468.21 637.882 468.061 637.756 467.967L626.931 459.785C627.926 458.467 627.664 456.592 626.346 455.597 625.027 454.603 623.153 454.865 622.158 456.183 622.079 456.286 622.008 456.395 621.944 456.508L600.532 452.572 600.532 450 593.026 450 593.026 457.506 598.532 457.506ZM617.039 482 613.532 482 613.532 478.494 617.039 478.494ZM595.026 452 598.532 452 598.532 455.506 595.026 455.506Z"/><path d="M650 439 578 439C575.794 439.007 574.007 440.794 574 443L574 491C574.007 493.206 575.794 494.993 578 495L606 495 606 501 596 501 596 507 632 507 632 501 622 501 622 495 650 495C652.206 494.993 653.993 493.206 654 491L654 443C653.993 440.794 652.206 439.007 650 439ZM648 489 580 489 580 445 648 445Z"/></g></svg>