<svg width="96" height="96" xmlns="http://www.w3.org/2000/svg" xmlns:xlink="http://www.w3.org/1999/xlink" xml:space="preserve" overflow="hidden"><g transform="translate(-292 -424)"><path d="M305 502 309 502 309 499 328 499 328 502 332 502 332 482 305 482ZM316 486 321 486C321.552 486 322 486.448 322 487 322 487.552 321.552 488 321 488L316 488C315.448 488 315 487.552 315 487 315 486.448 315.448 486 316 486Z"/><path d="M344 451 347 451 347 465 344 465Z"/><path d="M378 467 302 467C300.895 467 300 467.895 300 469 300 470.105 300.895 471 302 471L305 471 305 480 332 480 332 471 371 471 371 502 375 502 375 471 378 471C379.105 471 380 470.105 380 469 380 467.895 379.105 467 378 467ZM321 476 316 476C315.448 476 315 475.552 315 475 315 474.448 315.448 474 316 474L321 474C321.552 474 322 474.448 322 475 322 475.552 321.552 476 321 476Z"/><path d="M320 461 319.558 461 319.558 452.025C319.56 449.965 321.23 448.295 323.29 448.293L325.05 448.293 325.881 449.124C325.323 451.185 325.908 453.387 327.414 454.9L335.9 446.414C334.387 444.908 332.186 444.324 330.125 444.881L328.125 442.881C326.958 441.711 325.063 441.708 323.892 442.875 322.99 443.775 322.756 445.147 323.31 446.295L323.29 446.295C320.126 446.298 317.561 448.863 317.558 452.027L317.558 461 317 461C314.791 461 313 462.791 313 465L324 465C324 462.791 322.209 461 320 461Z"/><path d="M333.778 452.778C334.559 451.997 334.559 450.731 333.778 449.95L330.95 452.778C331.731 453.559 332.997 453.559 333.778 452.778Z"/><path d="M362 454 368 454 368 462 362 462Z"/><path d="M362 463 368 463 368 465 362 465Z"/><path d="M362 451 368 451 368 453 362 453Z"/><path d="M353 449 349 449 349 465 353 465ZM352 453 350 453 350 451 352 451Z"/><path d="M360 453 355 453 355 465 360 465ZM357.5 463C357.224 463 357 462.776 357 462.5 357 462.224 357.224 462 357.5 462 357.776 462 358 462.224 358 462.5 358 462.776 357.776 463 357.5 463ZM357.5 456C357.224 456 357 455.776 357 455.5 357 455.224 357.224 455 357.5 455 357.776 455 358 455.224 358 455.5 358 455.776 357.776 456 357.5 456Z"/></g></svg>