<svg width="96" height="96" xmlns="http://www.w3.org/2000/svg" xmlns:xlink="http://www.w3.org/1999/xlink" xml:space="preserve" overflow="hidden"><g transform="translate(-381 -424)"><path d="M471 466 458.875 466 458.875 452.125 451.125 452.125 451.125 455.125 447.875 455.125 447.875 449.125 441.125 449.125 441.125 453.125 437.125 453.125 437.125 466 410.875 466 410.875 464.328C410.873 462.741 409.587 461.455 408 461.453L402 461.453C400.413 461.455 399.127 462.741 399.125 464.328L399.125 466 387 466 387 472 390 472 390 507 392 507 392 503 418 503 418 507 420 507 420 472 466 472 466 507 468 507 468 472 471 472ZM452.875 466 452.875 464.5 457.125 464.5 457.125 466ZM452.875 456.5 457.125 456.5 457.125 463.5 452.875 463.5ZM452.875 453.875 457.125 453.875 457.125 455.5 452.875 455.5 452.875 453.875ZM451.125 456.875 451.125 466 447.875 466 447.875 456.875ZM442.875 450.875 446.125 450.875 446.125 466 442.875 466 442.875 450.875ZM438.875 454.875 441.125 454.875 441.125 466 438.875 466ZM400.875 464.328C400.874 463.706 401.378 463.201 402 463.2L408 463.2C408.621 463.201 409.124 463.704 409.125 464.325L409.125 466 400.875 466ZM392 501 392 484 418 484 418 501ZM418 482 392 482 392 472 418 472ZM469 470 389 470 389 468 469 468Z"/><path d="M402 478 408 478C408.552 478 409 477.552 409 477 409 476.448 408.552 476 408 476L402 476C401.448 476 401 476.448 401 477 401 477.552 401.448 478 402 478Z"/><path d="M408 488 402 488C401.448 488 401 488.448 401 489 401 489.552 401.448 490 402 490L408 490C408.552 490 409 489.552 409 489 409 488.448 408.552 488 408 488Z"/><path d="M405.875 453.129C405.875 450.85 407.721 449.003 410 449L412.968 449C412.325 450.94 412.827 453.076 414.268 454.525L415.391 455.648 418.5 452.539C419.223 453.178 420.327 453.111 420.966 452.388 421.551 451.727 421.551 450.734 420.966 450.073L424.08 446.96 422.956 445.836C421.499 444.389 419.35 443.89 417.405 444.545L415.31 442.445C414.205 441.342 412.415 441.342 411.31 442.445L410.877 442.877C409.773 443.982 409.773 445.772 410.877 446.877L411.249 447.249 410 447.249C406.757 447.253 404.129 449.881 404.125 453.124L404.125 461.434 405.875 461.434ZM419.118 446C420.039 445.998 420.927 446.342 421.605 446.965L415.392 453.178C414.063 451.723 414.112 449.481 415.504 448.086L416.513 447.076C417.204 446.385 418.141 445.998 419.118 446ZM412.118 444.123 412.55 443.69C412.972 443.27 413.654 443.27 414.076 443.69L415.75 445.365 415.276 445.839 414.267 446.848 413.792 447.323 412.118 445.648C411.697 445.227 411.697 444.545 412.117 444.124 412.118 444.123 412.118 444.123 412.118 444.123Z"/><path d="M444 453 445 453 445 455 444 455Z"/></g></svg>